<?xml version="1.0" encoding="iso-8859-1"?>
<!-- Uploaded to: SVG Repo, www.svgrepo.com, Generator: SVG Repo Mixer Tools -->
<!DOCTYPE svg PUBLIC "-//W3C//DTD SVG 1.1//EN" "http://www.w3.org/Graphics/SVG/1.1/DTD/svg11.dtd">
<svg fill="gold" version="1.1" id="Capa_1" xmlns="http://www.w3.org/2000/svg" xmlns:xlink="http://www.w3.org/1999/xlink" 
	 width="800px" height="800px" viewBox="0 0 46.094 46.093"
	 xml:space="preserve">
<g>
	<g>
		<path d="M33.798,30.849h-2.614c-0.817-2.922-3.488-5.04-6.657-5.04c-1.089,0-2.12,0.25-3.036,0.698
			c-0.609-4.01-4.073-7.085-8.254-7.085c-4.611,0-8.349,3.744-8.349,8.354c0,1.084,0.207,2.112,0.582,3.075H5.092
			C2.288,30.851,0,33.113,0,35.917v0.756c0,2.608,2.131,4.729,4.739,4.729h29.185c2.846,0,5.158-2.312,5.158-5.157v-0.127
			C39.082,33.203,36.713,30.849,33.798,30.849z"/>
		<path d="M42.756,11.912h-1.65c-0.519-1.846-2.205-3.185-4.207-3.185c-0.688,0-1.34,0.158-1.918,0.441
			c-0.385-2.534-2.574-4.477-5.215-4.477c-2.914,0-5.274,2.365-5.274,5.278c0,0.685,0.131,1.334,0.368,1.942H24.62
			c-1.771,0-3.217,1.429-3.217,3.201v0.478c0,1.649,1.346,2.988,2.994,2.988h18.438c1.799,0,3.259-1.461,3.259-3.258v-0.08
			C46.094,13.399,44.598,11.912,42.756,11.912z"/>
	</g>
</g>
</svg>