<?xml version="1.0" encoding="iso-8859-1"?>
<!-- Uploaded to: SVG Repo, www.svgrepo.com, Generator: SVG Repo Mixer Tools -->
<svg fill="#fff" height="800px" width="800px" version="1.1" id="Layer_1" xmlns="http://www.w3.org/2000/svg" xmlns:xlink="http://www.w3.org/1999/xlink" 
	 viewBox="0 0 511.063 511.063" xml:space="preserve">
<g>
	<g>
		<g>
			<path d="M404.625,221.279c-4.378-40.286-16.375-82.577-47.343-128.708c3.371-6.613,3.132-14.507-1.084-21.129
				c-5.393-8.457-15.394-12.015-25.481-8.644c-2.227,0.725-3.806-0.418-4.378-0.939c-0.572-0.529-1.86-2.005-1.323-4.233l0.23-0.956
				c1.664-7.39-0.734-14.925-6.409-20.139c-5.854-5.402-14.174-7.253-21.709-4.898l-78.976,43.759L119.731,5.275
				c-9.182-5.367-19.874-6.682-30.08-3.746C79.437,4.481,71.108,11.3,66.201,20.72c-4.907,9.438-5.717,20.164-2.278,30.225
				c3.447,10.061,10.658,18.039,20.233,22.443l108.015,51.183l9.173,88.695l0.35,1.69c1.724,5.47,5.564,9.95,10.496,12.664
				c-22.75,19.081-36.019,47.095-36.019,77.201v112.375c0,51.755,42.112,93.867,93.867,93.867h85.333
				c51.755,0,93.867-42.112,93.867-93.867V304.821C449.237,271.131,432.555,240.138,404.625,221.279z M208.913,120.586
				l12.672-24.337l2.389-4.574l78.925-43.913c1.818-0.307,3.422,0.435,4.386,1.323c0.819,0.759,1.715,2.039,1.152,4.523
				c-1.843,7.697,0.538,15.488,6.374,20.838c5.837,5.342,13.815,7.049,21.871,4.352c2.961-0.99,4.565,0.947,5.12,1.818
				c0.555,0.87,1.621,3.149-0.922,5.82c-0.051,0.06-0.085,0.137-0.137,0.196c-0.009,0.008-0.026,0.008-0.034,0.026
				c-0.273,0.29-0.427,0.649-0.683,0.956c-0.981,1.186-1.929,2.381-2.62,3.703c-0.145,0.282-0.196,0.589-0.324,0.87
				c-0.674,1.417-1.271,2.867-1.604,4.386c-0.068,0.316-0.034,0.649-0.094,0.964c-0.256,1.519-0.461,3.038-0.384,4.599
				c0.026,0.521,0.213,1.041,0.282,1.562c0.162,1.331,0.282,2.662,0.7,3.985c0.009,0.034,0.034,0.06,0.051,0.102
				c0,0.017,0,0.034,0.009,0.051c0.239,0.759,0.683,1.391,0.998,2.108c0.461,1.033,0.845,2.108,1.442,3.038
				c0.521,0.794,1.229,1.434,1.843,2.142c0.614,0.717,1.135,1.51,1.852,2.133c0.947,0.828,2.082,1.459,3.191,2.125
				c0.546,0.333,1.007,0.768,1.596,1.058c1.766,0.862,3.695,1.519,5.76,1.937c3.055,0.623,3.49,3.098,3.533,4.147
				c0.051,1.033-0.171,3.533-3.703,4.582c-7.586,2.253-13.133,8.218-14.848,15.94c-0.435,1.929-0.597,3.866-0.503,5.76
				c0.282,5.709,2.884,11.128,7.654,15.352c1.681,1.502,1.681,3.132,1.374,4.275c-0.111,0.435-0.256,0.819-0.393,1.067
				c-0.469,0.922-1.946,2.987-5.495,2.125c-7.689-1.826-15.488,0.546-20.838,6.374c-5.35,5.837-7.049,13.807-4.361,21.879
				c0.981,2.953-0.947,4.557-1.818,5.12c-0.87,0.546-3.14,1.613-5.828-0.93c-1.434-1.357-3.004-2.492-4.676-3.396
				c-0.495-0.265-1.041-0.367-1.545-0.589c-3.499-1.544-7.287-2.091-11.145-1.604c-1.297,0.171-2.594,0.282-3.874,0.691
				c-5.393,1.698-9.643,5.333-12.288,10.274c-0.137,0.247-0.333,0.427-0.461,0.683c-0.87,1.775-1.527,3.712-1.954,5.794
				c-0.623,3.046-3.098,3.49-4.13,3.533c-1.05,0.094-3.541-0.179-4.591-3.721c-2.253-7.578-8.218-13.141-15.94-14.848h-0.043
				c-1.587-0.35-3.174-0.521-4.736-0.521c-0.196,0-0.384,0.051-0.589,0.06c-0.478,0.017-0.939,0.102-1.417,0.145
				c-1.323,0.128-2.611,0.367-3.874,0.734c-0.435,0.128-0.862,0.265-1.297,0.427c-1.451,0.529-2.833,1.212-4.156,2.057
				c-0.171,0.111-0.35,0.188-0.529,0.307c-1.468,1.007-2.867,2.142-4.096,3.533l-0.316,0.358l-0.811,0.606
				c-0.094,0.077-0.145,0.188-0.23,0.265c-1.041,0.614-2.15,0.606-2.995,0.41c-1.28-0.29-2.825-1.169-3.601-2.825L208.913,120.586z
				 M432.171,417.196c0,42.351-34.458,76.8-76.8,76.8h-85.333c-42.342,0-76.8-34.449-76.8-76.8V304.821
				c0-23.031,9.344-44.604,25.6-60.254v16.631c-0.341,14.097-0.23,27.921-0.111,41.506c0.06,6.579,0.111,13.073,0.111,19.482v7.927
				c0,43.315,35.234,78.549,78.558,78.549h30.618c43.324,0,78.558-35.234,78.558-78.549v-7.927c0-7.927,0.111-15.906,0.23-23.927
				c0.23-16.606,0.461-33.357-0.23-50.398v-3.294c16.256,15.65,25.6,37.222,25.6,60.254V417.196z"/>
			<path d="M280.158,183.222c1.664,2.33,4.292,3.575,6.955,3.575c1.715,0,3.448-0.521,4.949-1.596
				c3.84-2.731,4.727-8.064,1.988-11.896l-33.033-46.242h60.22c4.71,0,8.533-3.814,8.533-8.533s-3.823-8.533-8.533-8.533h-76.8
				c-3.2,0-6.127,1.783-7.586,4.625c-1.468,2.85-1.212,6.263,0.64,8.866L280.158,183.222z"/>
		</g>
	</g>
</g>
</svg>