<?xml version="1.0" standalone="no"?>
<!DOCTYPE svg PUBLIC "-//W3C//DTD SVG 20010904//EN"
 "http://www.w3.org/TR/2001/REC-SVG-20010904/DTD/svg10.dtd">
<svg version="1.0" xmlns="http://www.w3.org/2000/svg"
 width="512.000000pt" height="512.000000pt" viewBox="0 0 512.000000 512.000000"
 preserveAspectRatio="xMidYMid meet">

<g transform="translate(0.000000,512.000000) scale(0.100000,-0.100000)"
fill="#fff" stroke="none">
<path d="M3165 4385 c-3 -8 -8 -23 -11 -32 -4 -10 -18 -88 -33 -172 l-27 -155
-49 -13 c-28 -7 -87 -15 -132 -19 -46 -4 -83 -11 -83 -15 0 -5 -28 -9 -63 -9
-90 0 -108 -26 -64 -93 12 -19 30 -49 39 -66 12 -22 36 -40 75 -59 49 -22 72
-26 148 -26 50 0 131 4 181 8 78 8 94 6 117 -8 48 -32 66 11 25 59 -28 32 -50
34 -226 15 -146 -15 -224 -7 -271 28 -34 25 -37 40 -7 35 26 -5 168 22 199 38
9 6 17 18 17 28 0 15 11 19 73 24 39 3 99 15 132 27 83 30 207 36 320 16 144
-25 240 -18 240 19 0 16 -12 22 -70 31 -38 7 -140 18 -225 24 -143 11 -161 10
-237 -8 -46 -11 -83 -17 -83 -13 0 3 11 38 24 76 25 74 52 247 41 265 -9 15
-45 12 -50 -5z"/>
<path d="M1866 4288 c-34 -218 -42 -803 -13 -1007 10 -68 15 -126 13 -128 -3
-3 -17 13 -33 36 -27 39 -53 53 -53 29 0 -20 54 -109 95 -156 21 -24 81 -78
135 -122 156 -126 209 -194 334 -429 101 -188 116 -211 201 -312 68 -80 71
-86 51 -95 -48 -21 -23 -124 49 -198 67 -70 152 -83 170 -26 7 23 -24 98 -49
119 -10 8 -37 44 -60 80 -23 36 -65 91 -93 121 -75 82 -141 195 -248 426 l-43
91 40 -9 c22 -4 58 -18 81 -30 158 -80 403 -119 523 -83 72 22 73 21 70 -31
-2 -42 -7 -50 -55 -90 -82 -68 -164 -174 -135 -174 4 0 30 20 58 43 28 24 107
81 176 127 130 86 230 165 230 181 0 27 -38 16 -117 -35 -48 -30 -88 -54 -89
-53 0 1 -4 19 -7 39 l-6 37 52 17 c29 9 100 36 160 61 83 35 107 49 107 64 0
29 -40 24 -170 -22 -330 -118 -333 -119 -400 -119 -98 0 -330 59 -330 84 0 7
-10 26 -22 41 l-22 28 35 -6 c267 -49 461 -30 713 69 54 22 101 45 104 52 11
29 -15 30 -98 6 -178 -52 -370 -87 -470 -86 -88 1 -346 34 -358 47 -3 3 0 5 6
5 20 0 13 46 -10 67 -13 11 -36 25 -53 31 -28 10 -26 11 30 13 33 2 161 4 285
4 199 1 234 4 304 23 98 27 216 81 216 98 0 22 -16 24 -64 10 l-46 -14 0 28
c0 25 4 28 60 40 33 7 68 19 77 26 16 11 16 14 3 28 -13 13 -28 11 -128 -15
-195 -50 -418 -69 -615 -53 -74 7 -76 8 -71 30 8 30 -41 82 -85 90 -17 4 -31
10 -31 14 0 14 319 62 515 79 156 13 228 32 350 91 97 47 215 130 215 150 0
21 -34 23 -64 5 -43 -25 -203 -105 -211 -105 -3 0 -3 46 1 101 6 85 5 101 -7
97 -13 -4 -42 -105 -54 -189 -5 -35 -7 -37 -78 -57 -104 -30 -238 -52 -322
-52 -151 0 -342 -50 -475 -125 l-25 -14 -42 252 c-23 139 -52 326 -64 417 -11
91 -22 167 -24 168 -2 2 -9 1 -15 -3 -26 -16 28 -716 75 -987 25 -138 26 -137
-47 -86 l-63 44 -2 139 c-1 77 -7 235 -13 350 -5 116 -13 330 -16 478 -5 214
-9 267 -20 267 -7 0 -15 -15 -18 -32z m339 -1117 c22 -5 79 -20 127 -34 214
-64 426 -61 661 9 15 5 18 1 15 -22 -3 -25 -11 -31 -63 -48 -54 -18 -87 -20
-340 -21 -272 0 -282 -1 -350 -25 -52 -19 -70 -29 -69 -42 1 -10 -4 -18 -11
-18 -7 0 -16 32 -24 88 -7 48 -15 98 -18 111 -5 21 -3 23 13 17 10 -4 37 -11
59 -15z m69 -320 c3 -4 20 -11 38 -15 l32 -6 -34 -18 c-35 -18 -35 -18 -57 8
-12 14 -22 28 -23 33 0 10 38 9 44 -2z"/>
<path d="M4080 4195 c-47 -30 -124 -76 -172 -102 -48 -26 -88 -51 -88 -55 0
-25 139 9 235 57 39 19 90 51 114 72 35 31 42 43 37 61 -11 32 -31 27 -126
-33z"/>
<path d="M1154 4003 c6 -187 27 -494 45 -683 l9 -84 -97 -121 c-53 -66 -141
-183 -196 -260 -54 -77 -132 -184 -172 -238 -95 -128 -106 -153 -107 -252 0
-83 14 -126 67 -197 21 -29 89 -78 107 -78 21 0 9 37 -21 66 -74 70 -105 166
-85 263 18 86 73 173 206 326 67 77 163 193 213 257 51 65 94 117 97 118 3 0
11 -30 18 -67 7 -38 51 -163 97 -279 88 -221 182 -493 215 -625 33 -129 78
-246 151 -396 62 -128 83 -156 101 -137 3 3 -9 42 -27 87 -54 135 -101 277
-166 500 -59 202 -155 482 -204 594 -67 151 -110 359 -130 625 -14 189 -39
397 -80 666 -14 86 -21 112 -33 112 -13 0 -14 -25 -8 -197z"/>
<path d="M4300 3524 c-36 -36 -130 -125 -210 -197 -245 -220 -387 -366 -462
-471 -76 -106 -190 -246 -255 -312 -23 -23 -112 -91 -199 -152 -134 -93 -160
-108 -172 -96 -46 46 -188 -37 -180 -105 5 -43 46 -39 142 13 l84 45 5 -152
c2 -84 11 -226 20 -317 9 -91 21 -264 27 -385 6 -135 20 -286 36 -390 37 -249
24 -364 -51 -453 -47 -54 -105 -69 -189 -47 -66 17 -85 10 -66 -24 42 -80 195
-79 277 1 41 40 81 131 101 230 13 69 14 92 3 162 -22 141 -30 233 -46 544 -9
167 -26 410 -40 540 -36 360 -42 313 44 372 122 84 273 205 322 257 25 27 81
102 123 167 94 142 181 231 381 391 186 149 273 228 342 312 69 85 78 100 62
119 -19 23 -32 17 -99 -52z"/>
<path d="M3450 3304 c-26 -52 -21 -64 14 -40 30 19 50 52 42 72 -10 27 -34 14
-56 -32z"/>
<path d="M3471 2983 c-30 -36 -32 -53 -7 -53 20 0 56 44 56 68 0 32 -14 27
-49 -15z"/>
<path d="M1095 2658 c-2 -7 -9 -31 -16 -53 -6 -22 -26 -69 -44 -105 -18 -36
-42 -101 -54 -145 -12 -44 -31 -108 -43 -143 -21 -66 -19 -84 7 -62 25 21 50
77 74 162 12 42 33 96 46 120 40 72 71 238 45 238 -6 0 -12 -6 -15 -12z"/>
<path d="M1184 2438 c-4 -6 -22 -52 -40 -102 -18 -50 -44 -122 -58 -159 -14
-37 -26 -80 -26 -95 0 -53 -93 -81 -143 -42 -31 25 -37 25 -37 1 0 -58 95
-100 155 -68 25 13 33 13 64 0 42 -18 116 -12 138 10 13 13 20 13 49 1 63 -26
127 -14 176 33 34 33 55 90 39 106 -9 9 -21 0 -49 -32 l-38 -45 4 37 c4 32 1
38 -22 48 -22 10 -29 9 -46 -6 -29 -26 -25 -40 18 -61 l37 -19 -54 -3 c-29 -2
-55 -1 -57 1 -3 2 10 39 27 82 38 96 53 235 26 235 -10 0 -19 -11 -23 -27 -20
-91 -37 -155 -55 -211 -19 -57 -24 -64 -64 -82 -24 -11 -56 -20 -71 -20 -26 0
-27 1 -21 44 4 24 22 77 41 118 46 99 65 183 57 256 -1 15 -18 16 -27 0z"/>
<path d="M760 2375 c-9 -11 -6 -21 15 -50 42 -54 104 -96 126 -85 42 23 35 74
-17 119 -39 34 -102 43 -124 16z"/>
<path d="M2135 2290 c-8 -12 45 -127 86 -187 90 -130 164 -188 382 -295 89
-44 194 -101 232 -126 l70 -47 -48 -6 c-48 -5 -71 -22 -62 -46 3 -9 -2 -10
-18 -4 -59 23 -438 190 -559 247 -76 35 -142 64 -148 64 -5 0 -10 -6 -10 -14
0 -14 69 -57 232 -145 61 -33 93 -60 154 -129 43 -48 146 -157 229 -242 155
-159 186 -196 205 -246 l11 -29 -29 28 c-56 54 -152 57 -138 4 3 -12 -41 25
-107 90 -180 178 -550 493 -577 493 -21 0 -18 -20 6 -39 15 -12 109 -98 211
-193 195 -183 243 -244 289 -364 29 -79 29 -79 2 -60 -34 24 -89 21 -95 -5 -5
-18 -20 -7 -112 83 -122 120 -238 224 -364 326 -81 66 -117 85 -117 64 0 -5
53 -60 118 -123 127 -124 172 -175 172 -195 0 -10 -6 -10 -27 2 -33 17 -69 18
-79 3 -16 -26 -145 153 -223 309 -30 59 -60 80 -53 36 7 -44 114 -243 159
-296 72 -85 217 -208 247 -208 29 0 38 19 26 59 -5 17 -5 43 -1 58 7 27 9 26
139 -96 73 -67 148 -142 167 -166 20 -24 52 -51 71 -60 33 -16 37 -16 55 1 23
20 24 68 4 104 -8 14 -15 36 -15 50 0 14 -13 62 -28 107 -21 61 -24 79 -13 69
9 -7 54 -45 100 -84 46 -40 88 -72 93 -72 5 0 24 -15 43 -34 41 -41 93 -56
110 -32 7 8 12 53 13 98 2 124 -26 176 -192 348 -72 74 -149 155 -171 179
l-40 43 40 -17 c82 -35 223 -83 321 -110 145 -40 180 -26 147 58 -26 66 -68
122 -123 161 -28 20 -141 83 -251 141 -109 57 -221 120 -248 139 -82 61 -159
149 -235 274 -26 42 -40 51 -51 32z"/>
<path d="M936 2118 c-9 -12 -16 -25 -16 -29 0 -10 45 -37 74 -45 22 -5 27 -2
36 21 23 61 -58 105 -94 53z"/>
<path d="M1140 2120 c-13 -25 -7 -36 31 -56 24 -12 34 -13 45 -3 17 14 18 51
2 67 -19 19 -66 15 -78 -8z"/>
<path d="M1796 1322 c-5 -9 8 -159 25 -277 12 -90 56 -179 117 -241 27 -27 57
-62 68 -78 34 -54 112 -71 158 -35 38 30 28 44 -34 44 -50 0 -53 2 -72 35 -20
37 -20 45 -2 249 6 68 5 73 -12 69 -13 -2 -21 -16 -27 -45 -8 -40 -9 -42 -32
-31 -31 14 -75 -12 -76 -45 -1 -39 -26 30 -39 108 -19 119 -51 255 -60 255 -5
0 -11 -4 -14 -8z m186 -428 l-4 -36 -25 25 c-28 28 -24 47 11 47 19 0 22 -4
18 -36z"/>
<path d="M2259 1043 c0 -5 0 -51 1 -104 1 -74 -3 -108 -19 -154 -25 -71 -27
-115 -6 -115 8 0 15 7 15 17 0 9 16 65 35 124 19 60 35 124 35 142 0 52 -19
97 -41 97 -10 0 -19 -3 -20 -7z"/>
<path d="M2755 951 c-9 -15 -7 -357 3 -406 12 -65 35 -52 45 25 9 71 2 294
-11 349 -8 35 -25 50 -37 32z"/>
<path d="M2102 838 c-7 -7 -12 -29 -12 -50 0 -37 1 -38 38 -38 81 0 103 26 66
78 -17 25 -71 31 -92 10z"/>
<path d="M2490 792 c0 -74 -23 -152 -56 -192 -32 -37 -84 -41 -145 -10 -50 26
-66 18 -38 -21 45 -63 134 -79 189 -33 72 61 104 189 74 297 -11 37 -24 14
-24 -41z"/>
<path d="M2540 756 c0 -35 -7 -100 -15 -143 -23 -121 -20 -159 14 -194 16 -16
37 -29 45 -29 21 0 20 5 -5 40 -26 35 -28 83 -9 230 14 110 9 160 -15 160 -12
0 -15 -14 -15 -64z"/>
<path d="M2869 722 c-27 -24 -32 -36 -36 -94 l-6 -67 44 -11 c59 -16 187 -9
200 10 12 18 5 95 -11 131 -29 63 -136 80 -191 31z"/>
<path d="M2284 665 c-24 -57 -19 -64 56 -76 60 -9 70 -3 70 41 0 47 -24 70
-74 70 -33 0 -39 -4 -52 -35z"/>
<path d="M2602 563 c-11 -10 -23 -33 -27 -50 -6 -29 -3 -34 20 -43 30 -11 75
-13 99 -4 10 4 16 18 16 40 0 63 -63 96 -108 57z"/>
<path d="M2701 439 c-53 -47 -47 -69 13 -49 40 13 72 51 62 75 -9 24 -28 17
-75 -26z"/>
</g>
</svg>
